# xmcd
# Copyright (C) 1995-1998 Ti Kan
#
# Track frame offsets:
#       150
#       9711
#       23109
#       36899
#       54888
#       65575
#       84263
#       96635
#       112115
#       126113
#       139930
#       153370
#       168549
#
# Disc length: 2413 seconds
#
# Revision: 0
# Processed by: cddbd v1.5.2PL0 Copyright (c) Steve Scherf et al.
# Submitted via: CD-Import v1.0
#
DISCID=ae096b0d
DTITLE=Casio Fieber - Golden Trash
DYEAR=07
DGENRE=
TTITLE0=Mann Im Wald
TTITLE1=Kalt
TTITLE2=Willst Du Mit Mir Gehen
TTITLE3=Königin
TTITLE4=Sun Behind The Sky
TTITLE5=Geil
TTITLE6=Fluss
TTITLE7=Komm Mit Mir
TTITLE8=My Baby Had A Hammer
TTITLE9=Liebeslied
TTITLE10=Polyorkester
TTITLE11=Fragen
TTITLE12=Kleines Stück
EXTD=
EXTT0=
EXTT1=
EXTT2=
EXTT3=
EXTT4=
EXTT5=
EXTT6=
EXTT7=
EXTT8=
EXTT9=
EXTT10=
EXTT11=
EXTT12=
PLAYORDER=
